<?xml version="1.0" encoding="utf-8"?>
<!-- Generator: Adobe Illustrator 15.0.0, SVG Export Plug-In . SVG Version: 6.00 Build 0)  -->
<!DOCTYPE svg PUBLIC "-//W3C//DTD SVG 1.1//EN" "http://www.w3.org/Graphics/SVG/1.1/DTD/svg11.dtd">
<svg version="1.1"  xmlns="http://www.w3.org/2000/svg" xmlns:xlink="http://www.w3.org/1999/xlink" x="0px" y="0px"
	 width="48px" height="48px" viewBox="0 0 48 48" enable-background="new 0 0 48 48" xml:space="preserve">
<path fill="#2196F3" d="M6,10c0-2.209,1.791-4,4-4h28c2.209,0,4,1.791,4,4v28c0,2.209-1.791,4-4,4H10c-2.209,0-4-1.791-4-4V10z"/>
<path fill="#FFFFFF" d="M30,32H19.315v-2.383l4.921-5.33c1.215-1.423,1.82-2.552,1.82-3.391c0-0.678-0.145-1.195-0.431-1.549
	c-0.288-0.354-0.705-0.53-1.253-0.53c-0.539,0-0.978,0.236-1.313,0.71c-0.336,0.473-0.505,1.063-0.505,1.771H19
	c0-0.968,0.234-1.861,0.705-2.681c0.469-0.82,1.121-1.462,1.956-1.924C22.494,16.232,23.427,16,24.458,16
	c1.653,0,2.93,0.395,3.822,1.182c0.895,0.786,1.342,1.917,1.342,3.391c0,0.621-0.113,1.226-0.338,1.814
	c-0.224,0.588-0.572,1.205-1.046,1.852c-0.473,0.647-1.235,1.512-2.287,2.595l-1.978,2.351H30V32z"/>
</svg>
