<?xml version="1.0" encoding="utf-8"?>
<!-- Generator: Adobe Illustrator 15.0.0, SVG Export Plug-In . SVG Version: 6.00 Build 0)  -->
<!DOCTYPE svg PUBLIC "-//W3C//DTD SVG 1.1//EN" "http://www.w3.org/Graphics/SVG/1.1/DTD/svg11.dtd">
<svg version="1.1"  xmlns="http://www.w3.org/2000/svg" xmlns:xlink="http://www.w3.org/1999/xlink" x="0px" y="0px"
	 width="48px" height="48px" viewBox="0 0 48 48" enable-background="new 0 0 48 48" xml:space="preserve">
<path fill="#2196F3" d="M6,10c0-2.209,1.791-4,4-4h28c2.209,0,4,1.791,4,4v28c0,2.209-1.791,4-4,4H10c-2.209,0-4-1.791-4-4V10z"/>
<path fill="#FFFFFF" d="M21.76,23.531h1.708c1.354,0,2.03-0.662,2.03-1.987c0-0.516-0.161-0.937-0.483-1.262
	c-0.322-0.326-0.777-0.489-1.364-0.489c-0.48,0-0.897,0.14-1.251,0.419s-0.532,0.627-0.532,1.042h-3.62
	c0-0.823,0.229-1.558,0.688-2.202c0.458-0.645,1.094-1.147,1.907-1.51C21.654,17.181,22.547,17,23.521,17
	c1.74,0,3.107,0.397,4.104,1.192c0.995,0.795,1.493,1.887,1.493,3.276c0,0.673-0.206,1.309-0.618,1.907
	c-0.412,0.598-1.012,1.083-1.799,1.455c0.83,0.301,1.482,0.758,1.955,1.369c0.473,0.613,0.709,1.37,0.709,2.272
	c0,1.396-0.537,2.514-1.611,3.352s-2.485,1.257-4.232,1.257c-1.024,0-1.975-0.195-2.852-0.586c-0.877-0.39-1.542-0.931-1.993-1.621
	C18.226,30.183,18,29.396,18,28.516h3.642c0,0.479,0.193,0.896,0.58,1.246s0.863,0.526,1.429,0.526c0.637,0,1.146-0.178,1.525-0.531
	c0.379-0.355,0.569-0.808,0.569-1.359c0-0.788-0.197-1.347-0.591-1.676c-0.394-0.329-0.938-0.494-1.633-0.494H21.76V23.531z"/>
</svg>
