<?xml version="1.0" encoding="utf-8"?>
<!-- Generator: Adobe Illustrator 15.0.0, SVG Export Plug-In . SVG Version: 6.00 Build 0)  -->
<!DOCTYPE svg PUBLIC "-//W3C//DTD SVG 1.1//EN" "http://www.w3.org/Graphics/SVG/1.1/DTD/svg11.dtd">
<svg version="1.1"  xmlns="http://www.w3.org/2000/svg" xmlns:xlink="http://www.w3.org/1999/xlink" x="0px" y="0px"
	 width="48px" height="48px" viewBox="0 0 48 48" enable-background="new 0 0 48 48" xml:space="preserve">
<path fill="#2196F3" d="M6,10c0-2.209,1.791-4,4-4h28c2.209,0,4,1.791,4,4v28c0,2.209-1.791,4-4,4H10c-2.209,0-4-1.791-4-4V10z"/>
<path fill="#FFFFFF" d="M27.416,16v2.833h-0.158c-1.324,0-2.412,0.322-3.264,0.967c-0.852,0.645-1.376,1.541-1.572,2.688
	c0.8-0.798,1.81-1.197,3.028-1.197c1.326,0,2.381,0.491,3.166,1.475s1.178,2.272,1.178,3.87c0,0.989-0.23,1.897-0.688,2.725
	c-0.461,0.827-1.102,1.473-1.926,1.94C26.355,31.768,25.443,32,24.44,32c-1.086,0-2.057-0.25-2.912-0.753
	c-0.855-0.502-1.521-1.22-1.998-2.153c-0.478-0.935-0.723-2.01-0.736-3.229v-1.442c0-1.604,0.338-3.045,1.015-4.323
	c0.677-1.28,1.642-2.282,2.897-3.009C23.96,16.363,25.352,16,26.881,16H27.416z M24.219,24.069c-0.469,0-0.861,0.11-1.178,0.331
	c-0.314,0.22-0.55,0.489-0.704,0.808v1.076c0,1.957,0.669,2.938,2.009,2.938c0.539,0,0.99-0.245,1.351-0.734
	c0.361-0.49,0.541-1.103,0.541-1.842c0-0.758-0.184-1.379-0.553-1.858C25.318,24.31,24.831,24.069,24.219,24.069z"/>
</svg>
