<?xml version="1.0" encoding="utf-8"?>
<!-- Generator: Adobe Illustrator 15.0.0, SVG Export Plug-In . SVG Version: 6.00 Build 0)  -->
<!DOCTYPE svg PUBLIC "-//W3C//DTD SVG 1.1//EN" "http://www.w3.org/Graphics/SVG/1.1/DTD/svg11.dtd">
<svg version="1.1"  xmlns="http://www.w3.org/2000/svg" xmlns:xlink="http://www.w3.org/1999/xlink" x="0px" y="0px"
	 width="48px" height="48px" viewBox="0 0 48 48" enable-background="new 0 0 48 48" xml:space="preserve">
<path fill="#2196F3" d="M6,10c0-2.209,1.791-4,4-4h28c2.209,0,4,1.791,4,4v28c0,2.209-1.791,4-4,4H10c-2.209,0-4-1.791-4-4V10z"/>
<path fill="#F3F3F3" d="M29.686,20.383c0,0.755-0.189,1.422-0.568,1.998c-0.379,0.577-0.9,1.041-1.564,1.39
	c0.751,0.364,1.346,0.86,1.787,1.491c0.439,0.631,0.66,1.377,0.66,2.239c0,1.39-0.486,2.486-1.456,3.292
	C27.572,31.598,26.236,32,24.533,32c-1.711,0-3.061-0.404-4.049-1.213C19.494,29.979,19,28.883,19,27.501
	c0-0.834,0.216-1.571,0.649-2.212c0.433-0.643,1.046-1.148,1.841-1.519c-0.671-0.349-1.198-0.813-1.581-1.39
	c-0.383-0.576-0.574-1.243-0.574-1.998c0-1.354,0.466-2.422,1.397-3.207C21.664,16.392,22.919,16,24.5,16
	c1.596,0,2.858,0.392,3.789,1.176C29.221,17.961,29.686,19.029,29.686,20.383z M26.34,27.213c0-0.643-0.167-1.136-0.503-1.481
	c-0.335-0.345-0.778-0.518-1.326-0.518c-0.549,0-0.993,0.173-1.332,0.518c-0.34,0.346-0.509,0.839-0.509,1.481
	c0,0.619,0.171,1.109,0.514,1.469c0.342,0.36,0.792,0.54,1.348,0.54c0.542,0,0.977-0.178,1.309-0.534
	C26.174,28.33,26.34,27.839,26.34,27.213z M24.5,18.779c-0.491,0-0.865,0.158-1.121,0.475c-0.256,0.318-0.384,0.759-0.384,1.321
	c0,0.556,0.13,1.004,0.39,1.347c0.26,0.342,0.642,0.513,1.148,0.513c0.498,0,0.872-0.171,1.12-0.513
	c0.25-0.343,0.374-0.791,0.374-1.347c0-0.557-0.128-0.994-0.384-1.314C25.386,18.939,25.005,18.779,24.5,18.779z"/>
</svg>
