<?xml version="1.0" encoding="utf-8"?>
<!-- Generator: Adobe Illustrator 15.0.0, SVG Export Plug-In . SVG Version: 6.00 Build 0)  -->
<!DOCTYPE svg PUBLIC "-//W3C//DTD SVG 1.1//EN" "http://www.w3.org/Graphics/SVG/1.1/DTD/svg11.dtd">
<svg version="1.1"  xmlns="http://www.w3.org/2000/svg" xmlns:xlink="http://www.w3.org/1999/xlink" x="0px" y="0px"
	 width="48px" height="48px" viewBox="0 0 48 48" enable-background="new 0 0 48 48" xml:space="preserve">
<path fill="#2196F3" d="M6,10c0-2.209,1.791-4,4-4h28c2.209,0,4,1.791,4,4v28c0,2.209-1.791,4-4,4H10c-2.209,0-4-1.791-4-4V10z"/>
<path fill="#FFFFFF" d="M25.297,25.77c-0.786,0.698-1.667,1.047-2.642,1.047c-1.429,0-2.562-0.477-3.399-1.432S18,23.154,18,21.559
	c0-0.998,0.234-1.924,0.704-2.779c0.468-0.855,1.128-1.532,1.976-2.03C21.527,16.25,22.464,16,23.489,16
	c1.039,0,1.979,0.26,2.82,0.775c0.841,0.517,1.495,1.248,1.965,2.191c0.469,0.943,0.711,2.032,0.726,3.265v1.379
	c0,1.717-0.342,3.206-1.022,4.468c-0.684,1.262-1.655,2.23-2.919,2.907C23.796,31.662,22.324,32,20.642,32h-0.228v-2.886l0.693-0.01
	C23.619,28.982,25.016,27.871,25.297,25.77z M23.641,24.22c0.793,0,1.364-0.339,1.711-1.016v-1.496c0-0.997-0.17-1.735-0.509-2.212
	c-0.34-0.478-0.799-0.717-1.375-0.717c-0.513,0-0.942,0.271-1.289,0.813c-0.346,0.541-0.52,1.197-0.52,1.967
	c0,0.813,0.177,1.458,0.531,1.94C22.543,23.979,23.026,24.22,23.641,24.22z"/>
</svg>
