<?xml version="1.0" encoding="iso-8859-1"?>
<!-- Generator: Adobe Illustrator 21.0.2, SVG Export Plug-In . SVG Version: 6.00 Build 0)  -->
<svg xmlns="http://www.w3.org/2000/svg" xmlns:xlink="http://www.w3.org/1999/xlink" version="1.1" id="Layer_1" x="0px" y="0px" viewBox="0 0 40 40" style="enable-background:new 0 0 40 40;" xml:space="preserve">
<g>
	<path style="fill:#98CCFD;" d="M19.999,38.458C18.291,37.715,4.636,30.984,4.501,6.367L20,1.524l15.499,4.843   C35.364,30.919,21.707,37.708,19.999,38.458z"/>
	<g>
		<path style="fill:#4788C7;" d="M20,2.048l14.996,4.686C34.738,29.916,22.252,36.848,19.998,37.91    c-2.26-1.056-14.736-7.941-14.994-31.176L20,2.048 M20,1L4,6c0,27.141,16,33,16,33s16-5.932,16-33L20,1L20,1z"/>
	</g>
</g>
<circle style="fill:#FFFFFF;" cx="20" cy="28" r="1.5"/>
<path style="fill:none;stroke:#FFFFFF;stroke-width:2;stroke-miterlimit:10;" d="M16,17l0-0.809c0-2.166,1.622-4.107,3.785-4.221  C22.092,11.849,24,13.684,24,15.964c0,1.289-0.609,2.435-1.556,3.167C20.985,20.259,20,21.887,20,23.731v0.233"/>
</svg>
