<?xml version="1.0"?>
<svg xmlns="http://www.w3.org/2000/svg" width="50" height="50" viewBox="0 0 50 50">
    <path d="M 20.15625 0 C 20.10625 0 18.9125 0.02375 17.6875 1.21875 C 17.3335 1.56375 16.81475 2.062 16.21875 2.625 C 14.97375 3.803 13.40175 5.24875 12.46875 6.21875 C 10.81275 7.94075 7.68125 12.56225 6.40625 18.90625 C 5.53425 23.24625 5.03125 29.64625 5.03125 36.03125 C 5.03225 37.10025 5.9535 38 7.0625 38 C 7.5905 38 8.12 37.78925 8.5 37.40625 C 8.887 37.01825 9.09675 36.4875 9.09375 35.9375 C 9.09375 35.8465 9.046 26.75675 11.25 19.84375 C 13 14.35175 16.671 10.38625 17.125 9.90625 L 22.84375 6.65625 L 21.03125 15 L 40.03125 15 L 38.125 5.96875 L 40 6 C 41.654 6 43 4.654 43 3 C 43 1.346 41.654 0 40 0 L 20.15625 0 z M 9 3 C 4.038 3 0 7.038 0 12 C 0 15.204 1.659 18.05625 4.25 19.65625 C 4.318 19.27025 4.3655 18.861 4.4375 18.5 C 4.5065 18.155 4.6075 17.836 4.6875 17.5 C 3.0435 16.21 2 14.219 2 12 C 2 8.14 5.14 5 9 5 C 9.574 5 10.1385 5.08175 10.6875 5.21875 C 10.8125 5.07675 10.91825 4.96175 11.03125 4.84375 C 11.37325 4.48875 11.82725 4.068 12.28125 3.625 C 11.24725 3.222 10.127 3 9 3 z M 18 11.90625 C 16.929 13.16925 14.699 16.112 13.375 19.875 C 16.203 18.316 18 15.342 18 12 C 18 11.973 18 11.93225 18 11.90625 z M 20.71875 17 C 18.10875 17 16 19.123 16 21.75 L 16 45.25 C 16 47.877 18.10875 50 20.71875 50 L 41.28125 50 C 43.89125 50 46 47.84675 46 45.21875 L 46 21.75 C 46 19.123 43.89025 17 41.28125 17 L 20.71875 17 z M 23 25 L 39 25 L 39 31 L 23 31 L 23 25 z"/>
</svg>
