<?xml version="1.0"?>
<svg xmlns="http://www.w3.org/2000/svg" id="Layer_1" data-name="Layer 1" viewBox="0 0 64 64"><title>Dusk Part 1</title><path d="M54.17,12l-3.5-.23A27.89,27.89,0,0,1,35,5.7L33.69,4.62a2.88,2.88,0,0,0-3.62,0L28.72,5.7a27.89,27.89,0,0,1-15.64,6.08L9.59,12a2.91,2.91,0,0,0-2.7,3.08l.67,9.22a39.35,39.35,0,0,0,13.51,27L30,59.09a2.91,2.91,0,0,0,3.8,0l8.91-7.75a39.36,39.36,0,0,0,13.51-27l.67-9.23A2.9,2.9,0,0,0,54.17,12Z" style="fill:#72caaf;"/><path d="M54.17,12l-3.5-.23A27.89,27.89,0,0,1,35,5.7L33.69,4.62A2.89,2.89,0,0,0,31.88,4V59.8a2.89,2.89,0,0,0,1.9-.71l8.91-7.75a39.36,39.36,0,0,0,13.51-27l.67-9.23A2.9,2.9,0,0,0,54.17,12Z" style="fill:#66bfa1;"/><polygon points="31.38 16.43 32.62 18.7 34.88 19.94 32.62 21.18 31.38 23.44 30.14 21.18 27.88 19.94 30.14 18.7 31.38 16.43" style="fill:#7dd8ba;"/><polygon points="16.3 31.44 17.15 33 18.72 33.86 17.15 34.71 16.3 36.28 15.44 34.71 13.88 33.86 15.44 33 16.3 31.44" style="fill:#7dd8ba;"/><polygon points="40.53 37.44 41.11 38.5 42.18 39.09 41.11 39.67 40.53 40.73 39.95 39.67 38.88 39.09 39.95 38.5 40.53 37.44" style="fill:#7dd8ba;"/><path d="M44.17,22.73,29.88,37l-7.29-7.29a1,1,0,0,0-1.41,1.41l8,8a1,1,0,0,0,1.41,0l15-15a1,1,0,0,0-1.41-1.41Z" style="fill:#faefde;"/><path d="M44.09,13.1A29,29,0,0,1,35.6,9L33,7.23a2,2,0,0,0-2.29,0L28.16,9a29,29,0,0,1-14.7,5.18l-.65,0a1,1,0,0,0,.07,2h.07l.65,0a31,31,0,0,0,15.72-5.54l2.57-1.8,2.57,1.8A30.94,30.94,0,0,0,43.53,15a1,1,0,0,0,.56-1.92Z" style="fill:#8d6c9f;"/><path d="M50.89,14.24l-.59,0c-.76-.05-1.53-.13-2.28-.24a1,1,0,0,0-.29,2c.8.12,1.62.21,2.44.26l.59,0h.07a1,1,0,0,0,.07-2Z" style="fill:#8d6c9f;"/><path d="M55,10.31l-3.62-.24A28.87,28.87,0,0,1,35.15,3.78l-1.4-1.12a3,3,0,0,0-3.75,0l-1.4,1.12a28.85,28.85,0,0,1-16.19,6.29l-3.62.24A3,3,0,0,0,6,13.49L6.7,25a40.74,40.74,0,0,0,14,28l9.23,8a3,3,0,0,0,3.94,0l9.23-8a40.75,40.75,0,0,0,14-28l.69-11.54A3,3,0,0,0,55,10.31Zm.11,14.59A38.73,38.73,0,0,1,42.88,50.5v-.07a1,1,0,1,0-2,0v1.85l-8.34,7.25a1,1,0,0,1-1.31,0l-8.34-7.26V50.44a1,1,0,1,0-2,0v.06A38.72,38.72,0,0,1,8.69,24.91L8,13.37a1,1,0,0,1,.93-1.06l3.62-.24a30.85,30.85,0,0,0,17.3-6.72l1.4-1.12a1,1,0,0,1,1.25,0l1.4,1.12a30.86,30.86,0,0,0,17.3,6.72l3.62.24a1,1,0,0,1,.93,1.06Z" style="fill:#8d6c9f;"/><path d="M26.88,49.44a1,1,0,0,0-1,1v2a1,1,0,0,0,2,0v-2A1,1,0,0,0,26.88,49.44Z" style="fill:#8d6c9f;"/><path d="M31.88,49.44a1,1,0,0,0-1,1v2a1,1,0,0,0,2,0v-2A1,1,0,0,0,31.88,49.44Z" style="fill:#8d6c9f;"/><path d="M36.88,49.44a1,1,0,0,0-1,1v2a1,1,0,0,0,2,0v-2A1,1,0,0,0,36.88,49.44Z" style="fill:#8d6c9f;"/></svg>
